<?xml version="1.0" encoding="utf-8"?>
<!-- Generator: Adobe Illustrator 26.0.1, SVG Export Plug-In . SVG Version: 6.00 Build 0)  -->
<svg version="1.1" id="Layer_1" xmlns="http://www.w3.org/2000/svg" xmlns:xlink="http://www.w3.org/1999/xlink" x="0px" y="0px"
	 width="64px" height="64px" viewBox="0 0 64 64" style="enable-background:new 0 0 64 64;" xml:space="preserve">
<style type="text/css">
	.st0{display:none;fill:#231F20;}
	.st1{fill:#231F20;}
</style>
<path class="st0" d="M32,0C14.3,0,0,14.3,0,32s14.3,32,32,32s32-14.3,32-32S49.7,0,32,0z M48.6,36.2L48.6,36.2L35.1,49.7l-4.2-4.2
	L41.3,35H11.2v-6h30.1L30.9,18.6l4.2-4.2l13.4,13.4l4.2,4.2L48.6,36.2z"/>
<polygon class="st1" points="27.8,25.3 27.8,25.3 14.3,38.7 18.6,43 32,29.5 45.4,43 49.7,38.7 32,21 "/>
</svg>
