<?xml version="1.0" encoding="utf-8"?>
<!-- Generator: Adobe Illustrator 26.0.1, SVG Export Plug-In . SVG Version: 6.00 Build 0)  -->
<svg version="1.1" id="Layer_1" xmlns="http://www.w3.org/2000/svg" xmlns:xlink="http://www.w3.org/1999/xlink" x="0px" y="0px"
	 width="25.6px" height="25.6px" viewBox="0 0 25.6 25.6" style="enable-background:new 0 0 25.6 25.6;" xml:space="preserve">
<path d="M10.7,2.9C9.5,2.9,8.6,3.9,8.6,5v0.7H3.7c-1.2,0-2.1,0.9-2.1,2.1v1.9l10.6,2.8c0.4,0.1,0.7,0.1,1.1,0L24,9.7V7.8
	c0-1.2-0.9-2.1-2.1-2.1H17V5c0-1.2-0.9-2.1-2.1-2.1H10.7z M10.7,4.3h4.2c0.4,0,0.7,0.3,0.7,0.7v0.7H10V5C10,4.6,10.3,4.3,10.7,4.3z"
	/>
<path d="M1.6,19c0,1.2,0.9,2.1,2.1,2.1h18.2c1.2,0,2.1-0.9,2.1-2.1v-7.9L13,14c-0.1,0-0.2,0-0.4,0l-11-2.9V19z"/>
</svg>
