<?xml version="1.0" encoding="utf-8"?>
<!-- Generator: Adobe Illustrator 26.0.1, SVG Export Plug-In . SVG Version: 6.00 Build 0)  -->
<svg version="1.1" id="Layer_1" xmlns="http://www.w3.org/2000/svg" xmlns:xlink="http://www.w3.org/1999/xlink" x="0px" y="0px"
	 width="25.6px" height="25.6px" viewBox="0 0 25.6 25.6" style="enable-background:new 0 0 25.6 25.6;" xml:space="preserve">
<path d="M6.5,1.6c0.4,0,0.7,0.3,0.7,0.7V3h11.2V2.3c0-0.4,0.3-0.7,0.7-0.7s0.7,0.3,0.7,0.7V3h1.4C22.8,3,24,4.2,24,5.8v15.5
	c0,1.6-1.3,2.8-2.8,2.8H4.4c-1.6,0-2.8-1.3-2.8-2.8V5.8C1.6,4.2,2.8,3,4.4,3h1.4V2.3C5.8,1.9,6.1,1.6,6.5,1.6z M20.5,5.8H5.1
	c-0.4,0-0.8,0.3-0.8,0.7v1.4c0,0.4,0.3,0.7,0.8,0.7h15.3c0.4,0,0.8-0.3,0.8-0.7V6.5C21.2,6.1,20.9,5.8,20.5,5.8z M13.5,11.4
	c-0.4,0-0.7,0.3-0.7,0.7v1.4c0,0.4,0.3,0.7,0.7,0.7h1.4c0.4,0,0.7-0.3,0.7-0.7v-1.4c0-0.4-0.3-0.7-0.7-0.7H13.5z M17.7,11.4
	c-0.4,0-0.7,0.3-0.7,0.7v1.4c0,0.4,0.3,0.7,0.7,0.7h1.4c0.4,0,0.7-0.3,0.7-0.7v-1.4c0-0.4-0.3-0.7-0.7-0.7H17.7z M5.8,16.3v1.4
	c0,0.4,0.3,0.7,0.7,0.7h1.4c0.4,0,0.7-0.3,0.7-0.7v-1.4c0-0.4-0.3-0.7-0.7-0.7H6.5C6.1,15.6,5.8,15.9,5.8,16.3z M10.7,15.6
	c-0.4,0-0.7,0.3-0.7,0.7v1.4c0,0.4,0.3,0.7,0.7,0.7h1.4c0.4,0,0.7-0.3,0.7-0.7v-1.4c0-0.4-0.3-0.7-0.7-0.7H10.7z"/>
</svg>
