<?xml version="1.0" encoding="utf-8"?>
<!-- Generator: Adobe Illustrator 26.0.1, SVG Export Plug-In . SVG Version: 6.00 Build 0)  -->
<svg version="1.1" id="Layer_1" xmlns="http://www.w3.org/2000/svg" xmlns:xlink="http://www.w3.org/1999/xlink" x="0px" y="0px"
	 width="25.6px" height="25.6px" viewBox="0 0 25.6 25.6" style="enable-background:new 0 0 25.6 25.6;" xml:space="preserve">
<g>
	<path d="M10.1,19.8l-2-0.5l0.8-3c-1.2-0.4-2.3-1.1-3.3-1.9l-2.2,2.2l-1.5-1.5l2.2-2.2C2.8,11.4,2,9.6,1.7,7.6l2-0.4
		c0.8,4.3,4.6,7.6,9.1,7.6c4.6,0,8.3-3.3,9.1-7.6l2,0.4c-0.3,1.9-1.2,3.7-2.4,5.2l2.2,2.2l-1.5,1.5L20,14.3c-1,0.8-2.1,1.5-3.3,1.9
		l0.8,3l-2,0.5l-0.8-3c-1.3,0.2-2.6,0.2-3.9,0C10.9,16.8,10.1,19.8,10.1,19.8z"/>
</g>
</svg>
