<?xml version="1.0" encoding="utf-8"?>
<!-- Generator: Adobe Illustrator 26.0.1, SVG Export Plug-In . SVG Version: 6.00 Build 0)  -->
<svg version="1.1" xmlns="http://www.w3.org/2000/svg" xmlns:xlink="http://www.w3.org/1999/xlink" x="0px" y="0px" width="25.6px"
	 height="25.6px" viewBox="0 0 25.6 25.6" style="enable-background:new 0 0 25.6 25.6;" xml:space="preserve">
<style type="text/css">
	.st0{display:none;}
	.st1{display:inline;}
</style>
<g id="Layer_1" class="st0">
	<path class="st1" d="M20.3,3.1C16.2-1,9.4-1,5.3,3.1s-4.1,10.9,0,15l7.5,7.5l7.5-7.5C24.4,14,24.4,7.2,20.3,3.1z M12.8,14.1
		c-1.9,0-3.5-1.6-3.5-3.5c0-1.9,1.6-3.5,3.5-3.5c1.9,0,3.5,1.6,3.5,3.5C16.3,12.5,14.7,14.1,12.8,14.1z"/>
</g>
<g id="Layer_2">
	<path d="M12.8,2.2C6.9,2.2,2.2,6.9,2.2,12.8s4.7,10.6,10.6,10.6s10.6-4.7,10.6-10.6S18.6,2.2,12.8,2.2z M14.3,19.3h-3.1v-8.7h3.1
		V19.3z M12.8,9.6c-0.9,0-1.6-0.7-1.6-1.6c0-0.9,0.7-1.6,1.6-1.6s1.6,0.7,1.6,1.6C14.4,8.8,13.7,9.6,12.8,9.6z"/>
</g>
</svg>
