<?xml version="1.0" encoding="utf-8"?>
<!-- Generator: Adobe Illustrator 26.0.1, SVG Export Plug-In . SVG Version: 6.00 Build 0)  -->
<svg version="1.1" id="Layer_1" xmlns="http://www.w3.org/2000/svg" xmlns:xlink="http://www.w3.org/1999/xlink" x="0px" y="0px"
	 width="64px" height="64px" viewBox="0 0 64 64" style="enable-background:new 0 0 64 64;" xml:space="preserve">
<style type="text/css">
	.st0{fill:#231F20;}
</style>
<polygon class="st0" points="21,24.3 24.2,24.3 24.2,11 21,11 10.9,11 10.9,14.2 18.7,14.2 9.4,23.5 11.6,25.8 21,16.4 "/>
<polygon class="st0" points="47.4,19.3 42.2,19.3 42.2,24.5 42.2,28.5 38.2,28.5 33,28.5 33,33.7 33,37.7 29,37.7 23.8,37.7 
	23.8,42.9 23.8,46.9 14.6,46.9 14.6,52.1 23.8,52.1 29,52.1 29,46.9 29,42.9 33,42.9 38.2,42.9 38.2,37.7 38.2,33.7 42.2,33.7 
	47.4,33.7 47.4,28.5 47.4,24.5 56.6,24.5 56.6,19.3 "/>
</svg>
